<svg xmlns="http://www.w3.org/2000/svg" version="1.1" xmlns:xlink="http://www.w3.org/1999/xlink"
     width="1000" height="707" viewBox="0 0 1000 707">
    <g transform="matrix(1,0,0,1,-0.6060606060606233,0)">
        <svg viewBox="0 0 396 280" data-background-color="#ffffff" preserveAspectRatio="xMidYMid meet" height="707"
             width="1000" xmlns="http://www.w3.org/2000/svg" xmlns:xlink="http://www.w3.org/1999/xlink">
            <g id="tight-bounds" transform="matrix(1,0,0,1,0.2400000000000091,0)">
                <svg viewBox="0 0 395.52 280" height="280" width="395.52">
                    <g>
                        <svg viewBox="0 0 395.52 280" height="280" width="395.52">
                            <g>
                                <svg viewBox="0 0 395.52 280" height="280" width="395.52">
                                    <g>
                                        <svg viewBox="0 0 395.52 280" height="280" width="395.52">
                                            <g>
                                                <svg viewBox="0 0 395.52 280" height="280" width="395.52">
                                                    <g transform="matrix(1,0,0,1,135.69162940068617,74.00336708925556)">
                                                        <svg viewBox="0 0 124.13674119862765 131.99326582148888"
                                                             height="131.99326582148888" width="124.13674119862765">
                                                            <g>
                                                                <svg xmlns="http://www.w3.org/2000/svg" xmlns:xlink="http://www.w3.org/1999/xlink" version="1.1" x="0" y="0" viewBox="7.6790008544921875 5 84.64300537109375 90" enable-background="new 0 0 100 100" xml:space="preserve" height="131.99326582148888" width="124.13674119862765" class="icon-o-0" data-fill-palette-color="accent" id="o-0"><g fill="#ffffff" data-fill-palette-color="accent"><circle cx="60.488" cy="90.333" r="4.7" fill="#ffffff" ></circle><circle
                                                                        cx="79.361" cy="90.333" r="4.7" fill="#ffffff"
                                                                       ></circle><path
                                                                        d="M92.309 61.193c-0.004-0.109-0.016-0.217-0.031-0.324-0.016-0.092-0.029-0.182-0.053-0.271-0.023-0.097-0.055-0.188-0.088-0.281-0.031-0.092-0.066-0.182-0.107-0.271-0.039-0.086-0.086-0.168-0.135-0.252-0.049-0.082-0.1-0.161-0.156-0.239-0.057-0.08-0.121-0.151-0.186-0.228-0.063-0.069-0.125-0.137-0.193-0.201-0.072-0.065-0.148-0.127-0.227-0.188-0.078-0.059-0.156-0.115-0.24-0.168-0.078-0.047-0.16-0.09-0.244-0.133-0.096-0.047-0.195-0.092-0.297-0.129-0.039-0.014-0.074-0.037-0.115-0.049-0.047-0.016-0.096-0.019-0.145-0.031-0.102-0.027-0.205-0.051-0.313-0.066-0.104-0.016-0.201-0.025-0.301-0.029-0.055-0.004-0.105-0.017-0.156-0.017H56.045l-1.113-6.534c-0.004-0.017-0.01-0.029-0.014-0.045-0.021-0.121-0.061-0.234-0.096-0.35-0.023-0.076-0.041-0.152-0.07-0.225-0.045-0.113-0.105-0.217-0.164-0.322-0.035-0.064-0.064-0.133-0.105-0.194-0.072-0.109-0.158-0.21-0.244-0.31-0.039-0.045-0.072-0.094-0.113-0.137-0.104-0.107-0.219-0.2-0.338-0.291-0.033-0.025-0.061-0.056-0.096-0.078-0.121-0.085-0.252-0.154-0.385-0.221-0.041-0.021-0.078-0.047-0.117-0.064-0.115-0.051-0.236-0.085-0.357-0.121-0.068-0.021-0.137-0.049-0.207-0.063-0.096-0.021-0.193-0.027-0.295-0.039-0.104-0.014-0.203-0.029-0.307-0.031-0.018 0-0.033-0.005-0.049-0.005h-6.807L32.627 34.615l-0.283-3.835c0-3.946-3.424-7.146-7.646-7.146h-0.383c-4.224 0-7.646 3.198-7.646 7.146l-0.283 3.848L15.47 47.04l-3.096 24.862h4.637v0.262l-2.69 18.809c-0.189 2.027 1.299 3.822 3.326 4.012C17.761 94.996 17.878 95 17.992 95c1.881 0 3.486-1.432 3.664-3.34l2.604-17.893h0.488l2.604 17.893c0.18 1.908 1.785 3.34 3.664 3.34 0.114 0 0.229-0.004 0.348-0.016 2.025-0.189 3.514-1.984 3.326-4.012L32 72.162v-0.26h4.638l-3.097-24.878 6.369 7.452c0.73 0.854 1.764 1.291 2.803 1.291 0.658 0 1.314-0.182 1.901-0.536 0.176 0.032 0.356 0.056 0.542 0.056h4.287l4.576 26.836c0.002 0.019 0.01 0.031 0.012 0.049 0.016 0.082 0.043 0.16 0.063 0.242 0.029 0.104 0.059 0.207 0.098 0.306 0.027 0.073 0.063 0.146 0.1 0.215 0.049 0.099 0.098 0.192 0.154 0.285 0.041 0.063 0.086 0.125 0.131 0.187 0.066 0.088 0.135 0.172 0.209 0.252 0.051 0.055 0.104 0.106 0.16 0.159 0.078 0.072 0.162 0.14 0.248 0.203 0.061 0.047 0.123 0.093 0.188 0.134 0.094 0.059 0.189 0.106 0.285 0.153 0.068 0.032 0.133 0.067 0.203 0.099 0.115 0.045 0.236 0.077 0.355 0.108 0.061 0.017 0.115 0.037 0.176 0.049 0.186 0.035 0.375 0.058 0.57 0.058 0.002 0 0.004 0 0.006 0h25.834c0.004 0 0.008 0.002 0.012 0.002 0.188 0 0.369-0.023 0.551-0.058 0.055-0.012 0.107-0.026 0.162-0.039 0.121-0.03 0.238-0.065 0.355-0.11 0.061-0.023 0.119-0.047 0.178-0.072 0.113-0.053 0.221-0.113 0.326-0.178 0.045-0.027 0.092-0.053 0.135-0.082 0.146-0.103 0.283-0.213 0.41-0.338 0.01-0.01 0.016-0.021 0.023-0.027 0.115-0.117 0.219-0.244 0.314-0.381 0.033-0.047 0.061-0.098 0.09-0.146 0.063-0.102 0.121-0.205 0.172-0.316 0.029-0.063 0.057-0.129 0.082-0.196 0.018-0.048 0.043-0.093 0.059-0.144l6.5-20.301c0.016-0.051 0.018-0.1 0.031-0.148 0.025-0.1 0.049-0.2 0.064-0.305s0.023-0.209 0.031-0.313c0.002-0.052 0.016-0.099 0.016-0.147C92.322 61.275 92.311 61.236 92.309 61.193z"
                                                                        fill="#ffffff"
                                                                        ></path><path
                                                                        d="M17.367 10.707c-0.231 0.752-0.357 1.551-0.357 2.379 0 4.465 3.621 8.085 8.087 8.085 4.465 0 8.086-3.62 8.086-8.085C33.183 8.62 29.562 5 25.097 5c-2.632 0-4.962 1.262-6.438 3.208-1.237-0.897-3.81-2.163-6.084 0.622 0 0-1.892 2.402-4.896 0.268 0 0 0.719 4.33 4.932 3.441C12.609 12.539 15.252 12.01 17.367 10.707z"
                                                                        fill="#ffffff"
                                                                        ></path></g></svg>
                                                            </g>
                                                        </svg>
                                                    </g>
                                                    <path d="M73.026 91.057L72.68 90.932C71.713 90.582 70.816 90.691 69.988 91.259 69.164 91.822 68.506 92.78 68.016 94.134V94.134C67.509 95.532 67.34 96.702 67.506 97.645 67.669 98.579 68.119 99.179 68.855 99.446V99.446C69.491 99.677 70.109 99.629 70.707 99.302 71.302 98.966 71.862 98.471 72.389 97.815 72.919 97.152 73.571 96.227 74.347 95.04V95.04C75.494 93.296 76.535 91.894 77.469 90.835 78.397 89.773 79.532 88.988 80.874 88.479 82.21 87.967 83.729 88.02 85.433 88.637V88.637C88.415 89.717 90.25 91.473 90.937 93.902 91.632 96.328 91.371 99.223 90.153 102.586V102.586C89.048 105.637 87.465 107.923 85.404 109.442 83.339 110.953 80.947 111.216 78.226 110.23V110.23L77.397 109.888 79.418 104.309 80.012 104.567C81.136 104.974 82.173 104.877 83.125 104.276 84.079 103.668 84.833 102.6 85.387 101.072V101.072C86.033 99.287 86.215 97.906 85.934 96.929 85.655 95.946 85.082 95.297 84.214 94.983V94.983C83.553 94.743 82.927 94.785 82.337 95.108 81.75 95.424 81.202 95.903 80.694 96.545 80.189 97.181 79.548 98.092 78.772 99.28V99.28C77.591 101.04 76.536 102.443 75.606 103.49 74.677 104.537 73.517 105.313 72.127 105.819 70.736 106.325 69.136 106.25 67.327 105.595V105.595C65.642 104.984 64.382 104.009 63.548 102.67 62.707 101.327 62.279 99.782 62.263 98.033 62.247 96.283 62.585 94.454 63.276 92.545V92.545C64.336 89.618 65.846 87.458 67.805 86.064 69.763 84.67 72.019 84.435 74.571 85.36V85.36L75.03 85.526ZM107.551 69.752L104.22 75.042 94.389 68.853 89.26 76.999 99.091 83.188 95.734 88.521 72.146 73.67 75.477 68.38 84.828 74.267 89.983 66.079 80.632 60.192 83.963 54.901ZM120.076 41.376C121.838 43.218 122.962 45.196 123.45 47.309 123.938 49.432 123.841 51.496 123.158 53.499 122.47 55.506 121.294 57.306 119.63 58.898V58.898C117.965 60.49 116.115 61.584 114.079 62.182 112.047 62.775 109.982 62.781 107.882 62.199 105.793 61.617 103.867 60.406 102.105 58.564V58.564L99.353 55.687C97.592 53.845 96.467 51.867 95.979 49.753 95.491 47.63 95.589 45.567 96.272 43.564 96.959 41.556 98.135 39.756 99.799 38.165V38.165C101.464 36.573 103.314 35.478 105.35 34.881 107.382 34.287 109.447 34.282 111.547 34.864 113.637 35.445 115.562 36.657 117.324 38.499V38.499ZM111.949 42.399C110.527 40.912 109.035 40.14 107.474 40.082 105.912 40.014 104.505 40.579 103.254 41.776V41.776C102.002 42.973 101.373 44.356 101.366 45.923 101.359 47.482 102.067 49.004 103.489 50.491V50.491L107.48 54.663C108.902 56.15 110.391 56.925 111.948 56.988 113.515 57.051 114.924 56.484 116.176 55.287V55.287C117.427 54.089 118.054 52.709 118.056 51.146 118.067 49.583 117.362 48.059 115.94 46.572V46.572ZM131.662 35.694L137.149 44.963 131.77 48.148 117.57 24.163 129.143 17.311C130.445 16.54 131.832 16.135 133.305 16.096 134.778 16.057 136.168 16.391 137.474 17.099 138.774 17.81 139.825 18.842 140.626 20.195V20.195L140.748 20.401C141.535 21.732 141.944 23.152 141.974 24.661 141.998 26.174 141.649 27.584 140.926 28.891 140.21 30.194 139.186 31.24 137.855 32.028V32.028ZM125.495 25.278L129.157 31.463 134.091 28.541C134.976 28.017 135.534 27.286 135.765 26.347 135.996 25.408 135.878 24.545 135.411 23.757V23.757L135.285 23.543C134.801 22.726 134.098 22.19 133.175 21.934 132.253 21.678 131.337 21.819 130.429 22.357V22.357ZM155.981 24.215L159.366 34.44 153.431 36.405 144.672 9.944 157.44 5.717C158.876 5.242 160.318 5.142 161.766 5.418 163.213 5.693 164.499 6.316 165.624 7.286 166.743 8.258 167.549 9.491 168.044 10.984V10.984L168.119 11.21C168.605 12.678 168.701 14.153 168.409 15.634 168.11 17.117 167.468 18.42 166.483 19.543 165.505 20.664 164.282 21.467 162.814 21.953V21.953ZM152.177 12.723L154.436 19.546 159.88 17.744C160.856 17.421 161.557 16.825 161.983 15.958 162.409 15.09 162.478 14.221 162.19 13.351V13.351L162.112 13.115C161.813 12.214 161.241 11.54 160.394 11.094 159.547 10.647 158.623 10.59 157.621 10.921V10.921ZM174.25 6.753L173.55 1.805 186.265 0.006 186.965 4.954 183.742 5.41 186.246 23.113 189.469 22.657 190.17 27.605 177.454 29.404 176.754 24.456 180.007 23.996 177.503 6.293ZM212.256 28.789L204.262 15.47C203.988 15.022 203.621 14.357 203.16 13.473 202.691 12.595 202.385 12.016 202.242 11.735V11.735L202.066 11.845 201.135 28.154 195.42 27.828 197.009 0 202.326 0.303 210.345 13.704 211.459 15.681C211.847 16.461 212.153 17.034 212.378 17.399V17.399L212.504 17.287 213.437 0.938 219.152 1.264 217.564 29.092ZM230.742 21.704C230.135 23.669 230.205 25.355 230.952 26.759 231.691 28.168 232.876 29.124 234.505 29.627V29.627C236.11 30.122 237.513 30.031 238.715 29.353 239.918 28.675 240.814 27.379 241.406 25.464V25.464L235.385 23.605 236.726 19.259 248.378 22.855 245.539 32.053C245.14 33.347 244.82 34.495 244.58 35.497 244.34 36.5 244.193 37.135 244.138 37.403V37.403L240.837 36.384C240.789 35.348 240.786 34.257 240.827 33.11V33.11C239.676 33.914 238.339 34.408 236.817 34.591 235.302 34.776 233.795 34.638 232.299 34.176V34.176L232.099 34.114C229.975 33.458 228.227 32.394 226.854 30.922 225.482 29.45 224.6 27.673 224.207 25.594 223.812 23.52 223.982 21.291 224.718 18.907V18.907L225.893 15.102C226.629 12.718 227.763 10.786 229.296 9.308 230.831 7.823 232.634 6.876 234.705 6.466 236.77 6.055 238.928 6.196 241.179 6.891V6.891L241.731 7.062C243.671 7.661 245.317 8.617 246.669 9.93 248.023 11.237 248.936 12.779 249.408 14.557 249.881 16.335 249.813 18.207 249.206 20.173V20.173L243.537 18.423C244.056 16.742 243.956 15.322 243.237 14.163 242.519 13.004 241.408 12.192 239.905 11.728V11.728C238.275 11.225 236.774 11.352 235.401 12.109 234.037 12.862 233.051 14.221 232.445 16.187V16.187ZM258.269 33.035C257.217 34.804 256.882 36.453 257.261 37.984 257.643 39.523 258.567 40.729 260.033 41.6V41.6C261.688 42.584 263.178 42.863 264.503 42.439 265.826 42.006 267.04 40.859 268.146 38.999V38.999L273.075 41.929C271.857 43.977 270.396 45.494 268.69 46.48 266.981 47.471 265.181 47.915 263.291 47.81 261.396 47.711 259.542 47.122 257.728 46.043V46.043L257.232 45.748C255.229 44.558 253.68 43.085 252.585 41.33 251.484 39.572 250.953 37.627 250.992 35.496 251.035 33.36 251.727 31.162 253.07 28.903V28.903L255.105 25.48C256.407 23.289 257.988 21.662 259.848 20.598 261.712 19.529 263.68 19.043 265.753 19.14 267.82 19.234 269.821 19.856 271.755 21.005V21.005L272.242 21.295C274.108 22.404 275.549 23.759 276.566 25.36 277.587 26.955 278.076 28.743 278.033 30.725 277.993 32.701 277.337 34.758 276.066 36.898V36.898L270.931 33.846C272.01 32.031 272.426 30.415 272.182 28.995 271.94 27.57 271.064 26.408 269.552 25.51V25.51C268.086 24.638 266.591 24.406 265.067 24.813 263.553 25.217 262.27 26.304 261.219 28.072V28.072ZM282.964 66.972L285.401 61.655 277.543 53.815 272.288 56.32 268.003 52.045 294.85 39.456 300.149 44.744 287.622 71.619ZM292.507 46.583L282.116 51.656 287.577 57.105C289.01 54.212 290.702 50.754 292.655 46.73V46.73ZM301.507 93.037C300.727 92.473 299.951 91.588 299.177 90.381V90.381C298.431 89.219 298.109 88.089 298.209 86.992 298.315 85.891 299.039 84.911 300.379 84.051V84.051C302.34 82.793 303.705 81.559 304.474 80.349 305.239 79.132 305.168 77.818 304.262 76.404V76.404L301.714 72.433 292.003 78.662 288.67 73.467 312.132 58.418 318.866 68.917C320.3 71.151 321.047 73.317 321.107 75.415 321.166 77.522 320.17 79.233 318.12 80.548V80.548C317.298 81.075 316.37 81.41 315.335 81.554 314.303 81.703 313.295 81.637 312.309 81.354 311.324 81.072 310.515 80.585 309.883 79.895V79.895L309.707 80.007C310.03 81.212 309.911 82.526 309.35 83.95 308.784 85.378 307.623 86.654 305.869 87.779V87.779C303.361 89.388 302.295 90.892 302.672 92.29V92.29ZM309.148 74.914C309.628 75.662 310.292 76.144 311.138 76.357 311.985 76.571 312.76 76.452 313.464 76.001V76.001L313.707 75.845C314.456 75.365 314.911 74.71 315.073 73.881 315.235 73.052 315.061 72.24 314.553 71.447V71.447L311.258 66.311 305.853 69.777ZM330.001 106.269L327.302 98.861 305.846 106.68 303.716 100.834 325.172 93.015 322.463 85.58 327.195 83.855 334.734 104.544ZM90.635 189.712L90.991 189.583C91.97 189.227 92.595 188.558 92.867 187.576 93.141 186.601 93.029 185.431 92.532 184.065V184.065C92.015 182.643 91.388 181.617 90.651 180.989 89.91 180.368 89.165 180.194 88.417 180.466V180.466C87.768 180.702 87.321 181.144 87.076 181.791 86.832 182.438 86.716 183.189 86.731 184.045 86.752 184.899 86.846 186.041 87.013 187.47V187.47C87.257 189.578 87.36 191.348 87.323 192.781 87.284 194.207 86.912 195.554 86.208 196.82 85.497 198.088 84.277 199.037 82.55 199.665V199.665C79.525 200.765 76.953 200.595 74.833 199.156 72.722 197.72 71.046 195.296 69.806 191.885V191.885C68.678 188.785 68.423 185.976 69.039 183.457 69.655 180.937 71.348 179.174 74.117 178.167V178.167L74.982 177.895 77.041 183.555 76.4 183.745C75.265 184.158 74.524 184.908 74.178 185.994 73.828 187.089 73.934 188.41 74.496 189.957V189.957C75.154 191.765 75.911 192.963 76.766 193.548 77.62 194.128 78.486 194.258 79.365 193.938V193.938C80.039 193.693 80.501 193.253 80.75 192.619 81.002 191.99 81.118 191.263 81.1 190.436 81.076 189.612 80.979 188.482 80.81 187.046V187.046C80.584 184.911 80.492 183.133 80.534 181.713 80.575 180.292 80.974 178.933 81.73 177.634 82.486 176.335 83.781 175.352 85.615 174.685V174.685C87.318 174.066 88.934 174.004 90.463 174.5 91.986 174.999 93.322 175.925 94.471 177.279 95.621 178.634 96.547 180.278 97.25 182.211V182.211C98.33 185.18 98.561 187.847 97.945 190.21 97.327 192.568 95.726 194.216 93.144 195.155V195.155L92.677 195.325ZM90.056 228.548L86.672 223.185 96.64 216.895 91.424 208.628 81.456 214.917 78.045 209.512 101.964 194.421 105.353 199.792 95.873 205.773 101.111 214.074 110.591 208.093 113.974 213.456ZM122.525 243.439C120.738 245.311 118.786 246.544 116.669 247.138 114.542 247.732 112.446 247.727 110.381 247.123 108.316 246.518 106.438 245.41 104.748 243.797V243.797C103.058 242.184 101.863 240.36 101.163 238.325 100.464 236.29 100.363 234.199 100.862 232.051 101.352 229.904 102.49 227.894 104.277 226.022V226.022L107.061 223.106C108.848 221.233 110.803 220.003 112.925 219.413 115.046 218.815 117.14 218.817 119.205 219.422 121.271 220.026 123.148 221.135 124.838 222.748V222.748C126.528 224.36 127.723 226.184 128.423 228.219 129.123 230.254 129.226 232.348 128.731 234.5 128.237 236.642 127.096 238.65 125.309 240.522V240.522ZM121.109 235.248C122.548 233.74 123.265 232.196 123.261 230.614 123.253 229.028 122.612 227.627 121.34 226.413V226.413C120.068 225.199 118.639 224.624 117.054 224.689 115.474 224.759 113.964 225.548 112.525 227.055V227.055L108.477 231.297C107.038 232.804 106.321 234.349 106.325 235.93 106.334 237.517 106.974 238.917 108.247 240.131V240.131C109.519 241.346 110.947 241.92 112.532 241.855 114.113 241.785 115.622 240.997 117.061 239.489V239.489ZM132.145 250.56L126.59 259.962 121.122 256.732 135.508 232.382 147.259 239.324C148.584 240.108 149.624 241.146 150.378 242.439 151.13 243.724 151.509 245.119 151.513 246.625 151.518 248.131 151.115 249.569 150.305 250.94V250.94L150.178 251.155C149.381 252.503 148.318 253.559 146.988 254.323 145.658 255.087 144.238 255.469 142.726 255.47 141.209 255.468 139.776 255.068 138.428 254.272V254.272ZM138.399 239.975L134.687 246.258 139.693 249.215C140.59 249.745 141.512 249.885 142.461 249.636 143.408 249.378 144.119 248.847 144.595 248.041V248.041L144.716 247.835C145.206 247.007 145.341 246.119 145.122 245.173 144.897 244.223 144.324 243.476 143.404 242.932V242.932ZM156.278 261.937L152.852 272.306 146.821 270.313 155.694 243.459 168.653 247.741C170.115 248.224 171.352 249.017 172.364 250.121 173.372 251.216 174.039 252.498 174.364 253.969 174.689 255.439 174.602 256.93 174.102 258.443V258.443L174.024 258.679C173.532 260.166 172.718 261.424 171.581 262.453 170.445 263.483 169.138 264.159 167.661 264.482 166.178 264.802 164.693 264.717 163.206 264.226V264.226ZM160.135 250.263L157.845 257.192 163.366 259.015C164.355 259.342 165.287 259.283 166.161 258.838 167.03 258.385 167.612 257.714 167.905 256.825V256.825L167.98 256.598C168.282 255.684 168.225 254.789 167.81 253.91 167.388 253.03 166.669 252.422 165.655 252.087V252.087ZM177.689 255.186L178.401 250.169 191.302 251.998 190.591 257.015 187.329 256.553 184.781 274.521 188.043 274.983 187.332 280 174.43 278.171 175.142 273.154 178.453 273.623 181.001 255.656ZM213.451 278.97L203.865 266.457C203.542 266.037 203.095 265.41 202.523 264.578 201.957 263.739 201.584 263.189 201.403 262.926V262.926L201.241 263.055 202.17 279.604 196.366 279.93 194.78 251.693 200.177 251.39 209.797 263.98 211.139 265.849C211.626 266.593 212.002 267.134 212.267 267.471V267.471L212.379 267.345 211.448 250.757 217.252 250.431 218.838 278.668ZM230.193 263.923C230.806 265.915 231.826 267.289 233.253 268.044 234.673 268.801 236.211 268.925 237.866 268.416V268.416C239.497 267.914 240.622 267.036 241.243 265.783 241.865 264.529 241.875 262.929 241.276 260.982V260.982L235.168 262.861 233.809 258.447 245.636 254.807 248.511 264.151C248.915 265.464 249.302 266.608 249.672 267.585 250.044 268.567 250.282 269.185 250.388 269.437V269.437L247.039 270.468C246.405 269.628 245.78 268.713 245.163 267.722V267.722C244.651 269.06 243.812 270.238 242.647 271.257 241.481 272.275 240.137 273.018 238.615 273.487V273.487L238.415 273.548C236.258 274.212 234.184 274.319 232.191 273.87 230.199 273.42 228.445 272.436 226.929 270.917 225.413 269.397 224.283 267.429 223.54 265.013V265.013L222.354 261.159C221.61 258.742 221.457 256.474 221.895 254.353 222.339 252.231 223.309 250.408 224.806 248.885 226.308 247.36 228.202 246.247 230.485 245.544V245.544L231.037 245.374C233.01 244.767 234.938 244.625 236.822 244.948 238.699 245.273 240.344 246.048 241.755 247.273 243.171 248.49 244.187 250.098 244.802 252.096V252.096L239.045 253.867C238.518 252.154 237.621 251.021 236.353 250.467 235.09 249.904 233.697 249.857 232.175 250.326V250.326C230.519 250.835 229.333 251.797 228.616 253.212 227.905 254.625 227.856 256.328 228.469 258.319V258.319ZM257.438 252.757C258.502 254.549 259.807 255.65 261.354 256.059 262.906 256.466 264.428 256.227 265.917 255.343V255.343C267.595 254.348 268.568 253.157 268.834 251.772 269.097 250.382 268.668 248.742 267.547 246.852V246.852L272.547 243.886C273.78 245.964 274.422 248.002 274.473 250.001 274.525 252 274.046 253.82 273.036 255.46 272.023 257.096 270.595 258.46 268.751 259.554V259.554L268.254 259.848C266.222 261.054 264.156 261.72 262.056 261.847 259.964 261.977 257.975 261.505 256.089 260.433 254.208 259.357 252.587 257.672 251.226 255.377V255.377L249.169 251.91C247.849 249.684 247.165 247.485 247.119 245.313 247.076 243.132 247.598 241.144 248.686 239.349 249.779 237.55 251.308 236.069 253.271 234.904V234.904L253.768 234.609C255.657 233.488 257.561 232.861 259.479 232.726 261.398 232.591 263.228 233.021 264.969 234.018 266.71 235.015 268.225 236.6 269.515 238.775V238.775L264.301 241.868C263.208 240.025 261.97 238.868 260.588 238.399 259.203 237.925 257.743 238.143 256.208 239.053V239.053C254.718 239.937 253.785 241.154 253.408 242.705 253.037 244.252 253.384 245.922 254.447 247.714V247.714ZM297.727 234.705L292.34 232.216 284.363 240.162 286.887 245.503 282.536 249.838 269.847 222.558 275.228 217.197 302.459 229.99ZM277.072 224.958L282.183 235.52 287.733 229.99C284.803 228.525 281.298 226.799 277.22 224.811V224.811ZM318.739 204.818C318.548 205.776 318.058 206.87 317.269 208.098V208.098C316.511 209.276 315.606 210.046 314.551 210.41 313.499 210.783 312.292 210.531 310.93 209.655V209.655C308.937 208.374 307.221 207.638 305.782 207.446 304.337 207.251 303.154 207.871 302.231 209.306V209.306L299.647 213.325 309.494 219.656 306.102 224.931 282.313 209.636 289.162 198.985C290.615 196.724 292.301 195.122 294.218 194.177 296.126 193.234 298.121 193.432 300.203 194.77V194.77C301.035 195.305 301.737 196.017 302.31 196.906 302.882 197.795 303.247 198.755 303.404 199.787 303.556 200.815 303.448 201.768 303.081 202.645V202.645L303.257 202.758C304.234 201.95 305.499 201.505 307.051 201.422 308.606 201.348 310.273 201.884 312.054 203.029V203.029C314.594 204.662 316.429 205.005 317.558 204.059V204.059ZM298.795 205.428C299.287 204.663 299.453 203.847 299.293 202.978 299.133 202.11 298.693 201.445 297.973 200.982V200.982L297.73 200.826C296.965 200.334 296.168 200.188 295.337 200.388 294.506 200.587 293.831 201.092 293.311 201.901V201.901L289.967 207.101 295.452 210.628ZM306.437 172.013L303.687 179.53 325.441 187.49 323.276 193.407 301.522 185.448 298.758 193.001 293.953 191.243 301.632 170.255ZM60.786 143.443C60.786 137.476 65.623 132.639 71.589 132.639 77.556 132.639 82.393 137.476 82.393 143.443 82.393 149.409 77.556 154.246 71.589 154.246 65.623 154.246 60.786 149.409 60.786 143.443ZM311.652 143.443C311.652 137.476 316.489 132.639 322.455 132.639 328.422 132.639 333.259 137.476 333.259 143.443 333.259 149.409 328.422 154.246 322.455 154.246 316.489 154.246 311.652 149.409 311.652 143.443Z"
                                                          fill="#ffffff" ></path>
                                                </svg>
                                            </g>
                                        </svg>
                                    </g>
                                </svg>
                            </g>
                            <g></g>
                        </svg>
                    </g>
                    <defs></defs>
                </svg>
                <rect width="395.52" height="280" fill="none" stroke="none" visibility="hidden"></rect>
            </g>
        </svg>
    </g>
</svg>
